<svg xmlns="http://www.w3.org/2000/svg" xmlns:xlink="http://www.w3.org/1999/xlink" width="800" zoomAndPan="magnify" viewBox="0 0 600 449.999984" height="600" preserveAspectRatio="xMidYMid meet" version="1.0"><defs><g/><clipPath id="eb3ad4885c"><path d="M 68 3 L 513 3 L 513 448 L 68 448 Z M 68 3 " clip-rule="nonzero"/></clipPath><clipPath id="a8c1156d73"><path d="M 296.984375 5.8125 L 305.085938 12.667969 C 309.234375 16.171875 315.101562 16.789062 319.886719 14.21875 L 329.261719 9.179688 C 333.835938 6.722656 339.519531 7.929688 342.703125 12.035156 L 349.183594 20.398438 C 352.507812 24.691406 358.121094 26.511719 363.332031 24.988281 L 373.570312 21.996094 C 378.554688 20.539062 383.863281 22.898438 386.117188 27.574219 L 390.703125 37.082031 C 393.058594 41.96875 398.171875 44.914062 403.585938 44.503906 L 414.230469 43.691406 C 419.40625 43.296875 424.105469 46.710938 425.335938 51.753906 L 427.828125 61.984375 C 429.113281 67.257812 433.5 71.199219 438.878906 71.914062 L 449.464844 73.324219 C 454.605469 74.007812 458.492188 78.320312 458.640625 83.507812 L 458.9375 94.023438 C 459.09375 99.445312 462.566406 104.214844 467.675781 106.027344 L 477.726562 109.589844 C 482.613281 111.320312 485.519531 116.347656 484.578125 121.449219 L 482.671875 131.800781 C 481.6875 137.132812 484.09375 142.519531 488.714844 145.351562 L 497.785156 150.90625 C 502.207031 153.613281 504.003906 159.132812 502.019531 163.921875 L 497.984375 173.664062 C 495.910156 178.671875 497.140625 184.441406 501.074219 188.167969 L 508.773438 195.464844 C 512.535156 199.027344 513.140625 204.800781 510.203125 209.070312 L 504.210938 217.777344 C 501.140625 222.246094 501.140625 228.144531 504.210938 232.609375 L 510.203125 241.316406 C 513.140625 245.585938 512.535156 251.359375 508.773438 254.921875 L 501.074219 262.21875 C 497.140625 265.945312 495.910156 271.714844 497.984375 276.722656 L 502.019531 286.464844 C 504.003906 291.253906 502.207031 296.773438 497.785156 299.480469 L 488.714844 305.035156 C 484.09375 307.867188 481.6875 313.253906 482.671875 318.585938 L 484.578125 328.9375 C 485.519531 334.039062 482.613281 339.066406 477.726562 340.796875 L 467.675781 344.359375 C 462.566406 346.171875 459.09375 350.941406 458.9375 356.363281 L 458.640625 366.882812 C 458.492188 372.066406 454.605469 376.378906 449.464844 377.066406 L 438.878906 378.472656 C 433.5 379.1875 429.113281 383.132812 427.828125 388.402344 L 425.335938 398.632812 C 424.105469 403.679688 419.40625 407.089844 414.230469 406.695312 L 403.585938 405.882812 C 398.171875 405.472656 393.058594 408.417969 390.703125 413.308594 L 386.117188 422.8125 C 383.863281 427.488281 378.554688 429.851562 373.570312 428.394531 L 363.332031 425.398438 C 358.121094 423.875 352.507812 425.695312 349.183594 429.988281 L 342.703125 438.351562 C 339.519531 442.457031 333.835938 443.664062 329.261719 441.207031 L 319.886719 436.167969 C 315.101562 433.597656 309.234375 434.214844 305.085938 437.722656 L 296.984375 444.574219 C 293.015625 447.929688 287.207031 447.929688 283.238281 444.574219 L 275.136719 437.722656 C 270.988281 434.214844 265.121094 433.597656 260.335938 436.167969 L 250.960938 441.207031 C 246.386719 443.664062 240.703125 442.457031 237.519531 438.351562 L 231.039062 429.988281 C 227.714844 425.695312 222.101562 423.875 216.886719 425.398438 L 206.648438 428.394531 C 201.664062 429.851562 196.359375 427.488281 194.101562 422.8125 L 189.519531 413.308594 C 187.164062 408.417969 182.050781 405.472656 176.636719 405.882812 L 165.992188 406.695312 C 160.816406 407.089844 156.113281 403.679688 154.886719 398.632812 L 152.394531 388.402344 C 151.109375 383.132812 146.722656 379.1875 141.34375 378.472656 L 130.757812 377.066406 C 125.617188 376.378906 121.730469 372.066406 121.582031 366.882812 L 121.285156 356.363281 C 121.128906 350.941406 117.65625 346.171875 112.546875 344.359375 L 102.496094 340.796875 C 97.609375 339.066406 94.703125 334.039062 95.644531 328.9375 L 97.550781 318.585938 C 98.535156 313.253906 96.128906 307.867188 91.507812 305.035156 L 82.433594 299.480469 C 78.015625 296.773438 76.21875 291.253906 78.203125 286.464844 L 82.238281 276.722656 C 84.308594 271.714844 83.082031 265.945312 79.148438 262.21875 L 71.449219 254.921875 C 67.6875 251.359375 67.082031 245.585938 70.019531 241.316406 L 76.011719 232.609375 C 79.082031 228.144531 79.082031 222.246094 76.011719 217.777344 L 70.019531 209.070312 C 67.082031 204.800781 67.6875 199.027344 71.449219 195.464844 L 79.148438 188.167969 C 83.082031 184.441406 84.308594 178.671875 82.238281 173.664062 L 78.203125 163.921875 C 76.21875 159.132812 78.015625 153.613281 82.433594 150.90625 L 91.507812 145.351562 C 96.128906 142.519531 98.535156 137.132812 97.550781 131.800781 L 95.644531 121.449219 C 94.703125 116.347656 97.609375 111.320312 102.496094 109.589844 L 112.546875 106.027344 C 117.65625 104.214844 121.128906 99.445312 121.285156 94.023438 L 121.582031 83.507812 C 121.730469 78.320312 125.617188 74.007812 130.757812 73.324219 L 141.34375 71.914062 C 146.722656 71.199219 151.109375 67.257812 152.394531 61.984375 L 154.886719 51.753906 C 156.113281 46.710938 160.816406 43.296875 165.992188 43.691406 L 176.636719 44.503906 C 182.050781 44.914062 187.164062 41.96875 189.519531 37.082031 L 194.101562 27.574219 C 196.359375 22.898438 201.664062 20.539062 206.648438 21.996094 L 216.886719 24.988281 C 222.101562 26.511719 227.714844 24.691406 231.039062 20.398438 L 237.519531 12.035156 C 240.703125 7.929688 246.386719 6.722656 250.960938 9.179688 L 260.335938 14.21875 C 265.121094 16.789062 270.988281 16.171875 275.136719 12.667969 L 283.238281 5.8125 C 287.207031 2.457031 293.015625 2.457031 296.984375 5.8125 Z M 296.984375 5.8125 " clip-rule="nonzero"/></clipPath><clipPath id="d8745d2fb2"><path d="M 68 3 L 513 3 L 513 448 L 68 448 Z M 68 3 " clip-rule="nonzero"/></clipPath><clipPath id="2132fba828"><path d="M 296.980469 5.8125 L 305.085938 12.667969 C 309.230469 16.171875 315.101562 16.789062 319.886719 14.21875 L 329.261719 9.179688 C 333.835938 6.722656 339.519531 7.929688 342.703125 12.035156 L 349.183594 20.398438 C 352.507812 24.691406 358.121094 26.511719 363.332031 24.988281 L 373.570312 21.996094 C 378.554688 20.539062 383.863281 22.898438 386.117188 27.574219 L 390.699219 37.078125 C 393.058594 41.96875 398.171875 44.914062 403.582031 44.503906 L 414.230469 43.691406 C 419.40625 43.296875 424.105469 46.710938 425.335938 51.753906 L 427.828125 61.984375 C 429.113281 67.257812 433.5 71.199219 438.878906 71.914062 L 449.460938 73.324219 C 454.605469 74.007812 458.492188 78.320312 458.640625 83.503906 L 458.9375 94.023438 C 459.09375 99.445312 462.5625 104.214844 467.675781 106.027344 L 477.726562 109.589844 C 482.613281 111.320312 485.515625 116.347656 484.578125 121.449219 L 482.671875 131.800781 C 481.6875 137.132812 484.089844 142.519531 488.714844 145.351562 L 497.785156 150.90625 C 502.207031 153.613281 504 159.132812 502.019531 163.921875 L 497.984375 173.664062 C 495.910156 178.671875 497.140625 184.441406 501.074219 188.167969 L 508.773438 195.464844 C 512.53125 199.027344 513.140625 204.800781 510.203125 209.070312 L 504.210938 217.777344 C 501.136719 222.246094 501.136719 228.140625 504.210938 232.609375 L 510.203125 241.316406 C 513.140625 245.585938 512.53125 251.359375 508.773438 254.921875 L 501.074219 262.21875 C 497.140625 265.945312 495.910156 271.714844 497.984375 276.722656 L 502.019531 286.464844 C 504 291.253906 502.207031 296.773438 497.785156 299.480469 L 488.714844 305.035156 C 484.089844 307.867188 481.6875 313.253906 482.671875 318.585938 L 484.578125 328.9375 C 485.515625 334.039062 482.613281 339.066406 477.726562 340.796875 L 467.675781 344.359375 C 462.5625 346.171875 459.09375 350.941406 458.9375 356.363281 L 458.640625 366.882812 C 458.492188 372.066406 454.605469 376.378906 449.460938 377.0625 L 438.878906 378.472656 C 433.5 379.1875 429.113281 383.128906 427.828125 388.402344 L 425.335938 398.632812 C 424.105469 403.675781 419.40625 407.089844 414.230469 406.695312 L 403.582031 405.882812 C 398.171875 405.472656 393.058594 408.417969 390.699219 413.304688 L 386.117188 422.8125 C 383.863281 427.488281 378.554688 429.851562 373.570312 428.390625 L 363.332031 425.398438 C 358.121094 423.875 352.507812 425.695312 349.183594 429.988281 L 342.703125 438.351562 C 339.519531 442.457031 333.835938 443.664062 329.261719 441.207031 L 319.886719 436.167969 C 315.101562 433.597656 309.230469 434.214844 305.085938 437.71875 L 296.980469 444.574219 C 293.015625 447.929688 287.207031 447.929688 283.238281 444.574219 L 275.136719 437.71875 C 270.988281 434.214844 265.121094 433.597656 260.335938 436.167969 L 250.960938 441.207031 C 246.382812 443.664062 240.703125 442.457031 237.519531 438.351562 L 231.039062 429.988281 C 227.714844 425.695312 222.101562 423.875 216.886719 425.398438 L 206.648438 428.390625 C 201.664062 429.851562 196.359375 427.488281 194.101562 422.8125 L 189.519531 413.304688 C 187.164062 408.417969 182.050781 405.472656 176.636719 405.882812 L 165.992188 406.695312 C 160.816406 407.089844 156.113281 403.675781 154.886719 398.632812 L 152.394531 388.402344 C 151.109375 383.128906 146.722656 379.1875 141.34375 378.472656 L 130.757812 377.0625 C 125.617188 376.378906 121.730469 372.066406 121.582031 366.882812 L 121.285156 356.363281 C 121.128906 350.941406 117.65625 346.171875 112.542969 344.359375 L 102.496094 340.796875 C 97.609375 339.066406 94.703125 334.039062 95.644531 328.9375 L 97.550781 318.585938 C 98.535156 313.253906 96.128906 307.867188 91.507812 305.035156 L 82.433594 299.480469 C 78.015625 296.773438 76.21875 291.253906 78.203125 286.464844 L 82.238281 276.722656 C 84.308594 271.714844 83.082031 265.945312 79.148438 262.21875 L 71.449219 254.921875 C 67.6875 251.359375 67.082031 245.585938 70.019531 241.316406 L 76.011719 232.609375 C 79.082031 228.140625 79.082031 222.246094 76.011719 217.777344 L 70.019531 209.070312 C 67.082031 204.800781 67.6875 199.027344 71.449219 195.464844 L 79.148438 188.167969 C 83.082031 184.441406 84.308594 178.671875 82.238281 173.664062 L 78.203125 163.921875 C 76.21875 159.132812 78.015625 153.613281 82.433594 150.90625 L 91.507812 145.351562 C 96.128906 142.519531 98.535156 137.132812 97.550781 131.800781 L 95.644531 121.449219 C 94.703125 116.347656 97.609375 111.320312 102.496094 109.589844 L 112.542969 106.027344 C 117.65625 104.214844 121.128906 99.445312 121.285156 94.023438 L 121.582031 83.503906 C 121.730469 78.320312 125.617188 74.007812 130.757812 73.324219 L 141.34375 71.914062 C 146.722656 71.199219 151.109375 67.257812 152.394531 61.984375 L 154.886719 51.753906 C 156.113281 46.710938 160.816406 43.296875 165.992188 43.691406 L 176.636719 44.503906 C 182.050781 44.914062 187.164062 41.96875 189.519531 37.078125 L 194.101562 27.574219 C 196.359375 22.898438 201.664062 20.539062 206.648438 21.996094 L 216.886719 24.988281 C 222.101562 26.511719 227.714844 24.691406 231.039062 20.398438 L 237.519531 12.035156 C 240.703125 7.929688 246.382812 6.722656 250.960938 9.179688 L 260.335938 14.21875 C 265.121094 16.789062 270.988281 16.171875 275.136719 12.667969 L 283.238281 5.8125 C 287.207031 2.457031 293.015625 2.457031 296.980469 5.8125 Z M 296.980469 5.8125 " clip-rule="nonzero"/></clipPath></defs><g clip-path="url(#eb3ad4885c)"><g clip-path="url(#a8c1156d73)"><path fill="#6d6875" d="M 64.917969 0 L 515.304688 0 L 515.304688 450.386719 L 64.917969 450.386719 Z M 64.917969 0 " fill-opacity="1" fill-rule="nonzero"/></g></g><g clip-path="url(#d8745d2fb2)"><g clip-path="url(#2132fba828)"><path stroke-linecap="butt" transform="matrix(0.75, 0, 0, 0.75, 64.917507, 0)" fill="none" stroke-linejoin="miter" d="M 309.417306 7.750001 L 320.224598 16.890626 C 325.75064 21.562502 333.578766 22.385418 339.958975 18.958335 L 352.458976 12.239584 C 358.557935 8.963542 366.13606 10.572917 370.380852 16.046876 L 379.021478 27.197919 C 383.45377 32.921878 390.938146 35.348961 397.886063 33.317711 L 411.537106 29.328127 C 418.182939 27.385419 425.261065 30.531252 428.266273 36.765628 L 434.375649 49.437504 C 437.521483 55.958338 444.339191 59.885421 451.552734 59.338546 L 465.750651 58.255213 C 472.651694 57.729171 478.917319 62.281255 480.557944 69.005214 L 483.880861 82.64584 C 485.594403 89.67709 491.443362 94.932299 498.615237 95.885424 L 512.724613 97.765633 C 519.583989 98.677091 524.766281 104.427091 524.964198 111.33855 L 525.360031 125.364593 C 525.568364 132.59376 530.193365 138.953136 537.011074 141.369803 L 550.412116 146.119803 C 556.927742 148.427095 560.797534 155.13022 559.547534 161.932304 L 557.005867 175.734389 C 555.693367 182.843764 558.896492 190.026056 565.063159 193.802098 L 577.15691 201.208349 C 583.052744 204.817724 585.443369 212.1771 582.802744 218.562517 L 577.422535 231.552101 C 574.65691 238.229185 576.297535 245.921894 581.542327 250.890645 L 591.807953 260.619812 C 596.81837 265.369812 597.63087 273.06773 593.714203 278.760438 L 585.724619 290.369814 C 581.62566 296.328148 581.62566 304.187524 585.724619 310.145857 L 593.714203 321.755233 C 597.63087 327.447942 596.81837 335.145859 591.807953 339.89586 L 581.542327 349.625027 C 576.297535 354.593778 574.65691 362.286487 577.422535 368.96357 L 582.802744 381.953155 C 585.443369 388.338572 583.052744 395.697947 577.15691 399.307323 L 565.063159 406.713573 C 558.896492 410.489615 555.693367 417.671908 557.005867 424.781283 L 559.547534 438.583367 C 560.797534 445.385451 556.927742 452.088577 550.412116 454.395869 L 537.011074 459.145869 C 530.193365 461.562536 525.568364 467.921911 525.360031 475.151079 L 524.964198 489.177121 C 524.766281 496.08858 519.583989 501.838581 512.724613 502.750039 L 498.615237 504.630248 C 491.443362 505.583373 485.594403 510.838581 483.880861 517.869832 L 480.557944 531.510458 C 478.917319 538.234417 472.651694 542.786501 465.750651 542.260459 L 451.552734 541.177125 C 444.339191 540.63025 437.521483 544.557334 434.375649 551.07296 L 428.266273 563.750044 C 425.261065 569.984419 418.182939 573.135461 411.537106 571.187544 L 397.886063 567.197961 C 390.938146 565.166711 383.45377 567.593794 379.021478 573.317753 L 370.380852 584.468796 C 366.13606 589.942754 358.557935 591.552129 352.458976 588.276087 L 339.958975 581.557337 C 333.578766 578.130253 325.75064 578.95317 320.224598 583.625045 L 309.417306 592.765671 C 304.130847 597.23963 296.386055 597.23963 291.094388 592.765671 L 280.292304 583.625045 C 274.761053 578.95317 266.938136 578.130253 260.557927 581.557337 L 248.057926 588.276087 C 241.953759 591.552129 234.380842 589.942754 230.13605 584.468796 L 221.495424 573.317753 C 217.063132 567.593794 209.578756 565.166711 202.625631 567.197961 L 188.974588 571.187544 C 182.328754 573.135461 175.255837 569.984419 172.24542 563.750044 L 166.136045 551.07296 C 162.995419 544.557334 156.177711 540.63025 148.95896 541.177125 L 134.766251 542.260459 C 127.865208 542.786501 121.594375 538.234417 119.958958 531.510458 L 116.636041 517.869832 C 114.922499 510.838581 109.07354 505.583373 101.901665 504.630248 L 87.78708 502.750039 C 80.932913 501.838581 75.750621 496.08858 75.552704 489.177121 L 75.156871 475.151079 C 74.948538 467.921911 70.318329 461.562536 63.50062 459.145869 L 50.104786 454.395869 C 43.58916 452.088577 39.71416 445.385451 40.969368 438.583367 L 43.511035 424.781283 C 44.823535 417.671908 41.615202 410.489615 35.453743 406.713573 L 23.354784 399.307323 C 17.464158 395.697947 15.068325 388.338572 17.714158 381.953155 L 23.094367 368.96357 C 25.854784 362.286487 24.219367 354.593778 18.974575 349.625027 L 8.708949 339.89586 C 3.693324 335.145859 2.886032 327.447942 6.802699 321.755233 L 14.792283 310.145857 C 18.886033 304.187524 18.886033 296.328148 14.792283 290.369814 L 6.802699 278.760438 C 2.886032 273.06773 3.693324 265.369812 8.708949 260.619812 L 18.974575 250.890645 C 24.219367 245.921894 25.854784 238.229185 23.094367 231.552101 L 17.714158 218.562517 C 15.068325 212.1771 17.464158 204.817724 23.354784 201.208349 L 35.453743 193.802098 C 41.615202 190.026056 44.823535 182.843764 43.511035 175.734389 L 40.969368 161.932304 C 39.71416 155.13022 43.58916 148.427095 50.104786 146.119803 L 63.50062 141.369803 C 70.318329 138.953136 74.948538 132.59376 75.156871 125.364593 L 75.552704 111.33855 C 75.750621 104.427091 80.932913 98.677091 87.78708 97.765633 L 101.901665 95.885424 C 109.07354 94.932299 114.922499 89.67709 116.636041 82.64584 L 119.958958 69.005214 C 121.594375 62.281255 127.865208 57.729171 134.766251 58.255213 L 148.95896 59.338546 C 156.177711 59.885421 162.995419 55.958338 166.136045 49.437504 L 172.24542 36.765628 C 175.255837 30.531252 182.328754 27.385419 188.974588 29.328127 L 202.625631 33.317711 C 209.578756 35.348961 217.063132 32.921878 221.495424 27.197919 L 230.13605 16.046876 C 234.380842 10.572917 241.953759 8.963542 248.057926 12.239584 L 260.557927 18.958335 C 266.938136 22.385418 274.761053 21.562502 280.292304 16.890626 L 291.094388 7.750001 C 296.386055 3.276042 304.130847 3.276042 309.417306 7.750001 Z M 309.417306 7.750001 " stroke="#89b0ae" stroke-width="12" stroke-opacity="1" stroke-miterlimit="4"/></g></g><g fill="#89b0ae" fill-opacity="0.302"><g transform="translate(96.345001, 240.278831)"><g><path d="M 175.09375 -78.324219 C 171.863281 -71.847656 165.316406 -68.550781 159.097656 -67.8125 C 151.21875 -66.878906 147.8125 -72.574219 146.808594 -81.074219 C 145.875 -88.953125 147.550781 -99.660156 149.007812 -108.664062 C 152.179688 -126.277344 156.574219 -133.523438 160.722656 -134.015625 C 163.601562 -134.566406 165.941406 -132.53125 168.636719 -132.847656 C 177.34375 -133.878906 182.886719 -145.675781 181.523438 -158.96875 C 180.171875 -170.371094 172.277344 -178.476562 157.765625 -176.757812 C 134.960938 -174.058594 109.59375 -155.710938 84.804688 -95.175781 C 83.332031 -91.640625 81.832031 -88.308594 80.335938 -84.976562 C 71.90625 -90.496094 66.933594 -98.738281 65.683594 -109.3125 C 63.890625 -124.445312 72.753906 -129.488281 80.9375 -129.617188 C 84.097656 -129.570312 85.484375 -132.046875 84.910156 -135.132812 C 83.757812 -144.875 75.554688 -153.785156 59.800781 -151.917969 C 42.175781 -149.832031 27.84375 -135.945312 30.421875 -114.175781 C 32.875 -93.445312 48.253906 -77.1875 70.882812 -68.933594 C 62.832031 -57.046875 52.652344 -48.90625 39.796875 -47.386719 C 28.394531 -46.035156 18.746094 -51.199219 17.664062 -60.320312 C 17.496094 -61.773438 15.921875 -62.636719 14.261719 -62.441406 C -2.324219 -60.476562 -11.324219 -42.386719 -9.3125 -25.386719 C -7.273438 -8.179688 6.214844 8.09375 34.617188 4.730469 C 57.003906 2.082031 75.292969 -22.785156 86.679688 -49.152344 C 88.652344 -53.796875 90.574219 -58.859375 92.546875 -63.507812 C 100.644531 -62.574219 109.292969 -62.339844 118.257812 -62.980469 C 117.980469 -56.429688 118.046875 -50.550781 118.660156 -45.367188 C 120.671875 -28.367188 127.707031 -15.117188 142.425781 -16.859375 C 170.414062 -20.171875 179.75 -62.058594 185.035156 -74.246094 C 186.847656 -78.457031 177.820312 -83.691406 175.09375 -78.324219 Z M 119.699219 -77.445312 C 111.769531 -76.925781 104.601562 -77.128906 98.367188 -78.28125 C 104.234375 -92.640625 110.152344 -106.585938 117.167969 -118.347656 C 122.347656 -126.109375 124.664062 -127.855469 127.359375 -128.171875 C 128.808594 -128.34375 129.945312 -127.636719 130.1875 -125.566406 C 131.195312 -117.066406 124.554688 -107.449219 119.699219 -77.445312 Z M 119.699219 -77.445312 "/></g></g></g><g fill="#89b0ae" fill-opacity="0.502"><g transform="translate(104.708636, 234.03331)"><g><path d="M 175.09375 -78.324219 C 171.863281 -71.847656 165.316406 -68.550781 159.097656 -67.8125 C 151.21875 -66.878906 147.8125 -72.574219 146.808594 -81.074219 C 145.875 -88.953125 147.550781 -99.660156 149.007812 -108.664062 C 152.179688 -126.277344 156.574219 -133.523438 160.722656 -134.015625 C 163.601562 -134.566406 165.941406 -132.53125 168.636719 -132.847656 C 177.34375 -133.878906 182.886719 -145.675781 181.523438 -158.96875 C 180.171875 -170.371094 172.277344 -178.476562 157.765625 -176.757812 C 134.960938 -174.058594 109.59375 -155.710938 84.804688 -95.175781 C 83.332031 -91.640625 81.832031 -88.308594 80.335938 -84.976562 C 71.90625 -90.496094 66.933594 -98.738281 65.683594 -109.3125 C 63.890625 -124.445312 72.753906 -129.488281 80.9375 -129.617188 C 84.097656 -129.570312 85.484375 -132.046875 84.910156 -135.132812 C 83.757812 -144.875 75.554688 -153.785156 59.800781 -151.917969 C 42.175781 -149.832031 27.84375 -135.945312 30.421875 -114.175781 C 32.875 -93.445312 48.253906 -77.1875 70.882812 -68.933594 C 62.832031 -57.046875 52.652344 -48.90625 39.796875 -47.386719 C 28.394531 -46.035156 18.746094 -51.199219 17.664062 -60.320312 C 17.496094 -61.773438 15.921875 -62.636719 14.261719 -62.441406 C -2.324219 -60.476562 -11.324219 -42.386719 -9.3125 -25.386719 C -7.273438 -8.179688 6.214844 8.09375 34.617188 4.730469 C 57.003906 2.082031 75.292969 -22.785156 86.679688 -49.152344 C 88.652344 -53.796875 90.574219 -58.859375 92.546875 -63.507812 C 100.644531 -62.574219 109.292969 -62.339844 118.257812 -62.980469 C 117.980469 -56.429688 118.046875 -50.550781 118.660156 -45.367188 C 120.671875 -28.367188 127.707031 -15.117188 142.425781 -16.859375 C 170.414062 -20.171875 179.75 -62.058594 185.035156 -74.246094 C 186.847656 -78.457031 177.820312 -83.691406 175.09375 -78.324219 Z M 119.699219 -77.445312 C 111.769531 -76.925781 104.601562 -77.128906 98.367188 -78.28125 C 104.234375 -92.640625 110.152344 -106.585938 117.167969 -118.347656 C 122.347656 -126.109375 124.664062 -127.855469 127.359375 -128.171875 C 128.808594 -128.34375 129.945312 -127.636719 130.1875 -125.566406 C 131.195312 -117.066406 124.554688 -107.449219 119.699219 -77.445312 Z M 119.699219 -77.445312 "/></g></g></g><g fill="#ffe4d6" fill-opacity="1"><g transform="translate(113.07227, 227.787802)"><g><path d="M 175.09375 -78.324219 C 171.863281 -71.847656 165.316406 -68.550781 159.097656 -67.8125 C 151.21875 -66.878906 147.8125 -72.574219 146.808594 -81.074219 C 145.875 -88.953125 147.550781 -99.660156 149.007812 -108.664062 C 152.179688 -126.277344 156.574219 -133.523438 160.722656 -134.015625 C 163.601562 -134.566406 165.941406 -132.53125 168.636719 -132.847656 C 177.34375 -133.878906 182.886719 -145.675781 181.523438 -158.96875 C 180.171875 -170.371094 172.277344 -178.476562 157.765625 -176.757812 C 134.960938 -174.058594 109.59375 -155.710938 84.804688 -95.175781 C 83.332031 -91.640625 81.832031 -88.308594 80.335938 -84.976562 C 71.90625 -90.496094 66.933594 -98.738281 65.683594 -109.3125 C 63.890625 -124.445312 72.753906 -129.488281 80.9375 -129.617188 C 84.097656 -129.570312 85.484375 -132.046875 84.910156 -135.132812 C 83.757812 -144.875 75.554688 -153.785156 59.800781 -151.917969 C 42.175781 -149.832031 27.84375 -135.945312 30.421875 -114.175781 C 32.875 -93.445312 48.253906 -77.1875 70.882812 -68.933594 C 62.832031 -57.046875 52.652344 -48.90625 39.796875 -47.386719 C 28.394531 -46.035156 18.746094 -51.199219 17.664062 -60.320312 C 17.496094 -61.773438 15.921875 -62.636719 14.261719 -62.441406 C -2.324219 -60.476562 -11.324219 -42.386719 -9.3125 -25.386719 C -7.273438 -8.179688 6.214844 8.09375 34.617188 4.730469 C 57.003906 2.082031 75.292969 -22.785156 86.679688 -49.152344 C 88.652344 -53.796875 90.574219 -58.859375 92.546875 -63.507812 C 100.644531 -62.574219 109.292969 -62.339844 118.257812 -62.980469 C 117.980469 -56.429688 118.046875 -50.550781 118.660156 -45.367188 C 120.671875 -28.367188 127.707031 -15.117188 142.425781 -16.859375 C 170.414062 -20.171875 179.75 -62.058594 185.035156 -74.246094 C 186.847656 -78.457031 177.820312 -83.691406 175.09375 -78.324219 Z M 119.699219 -77.445312 C 111.769531 -76.925781 104.601562 -77.128906 98.367188 -78.28125 C 104.234375 -92.640625 110.152344 -106.585938 117.167969 -118.347656 C 122.347656 -126.109375 124.664062 -127.855469 127.359375 -128.171875 C 128.808594 -128.34375 129.945312 -127.636719 130.1875 -125.566406 C 131.195312 -117.066406 124.554688 -107.449219 119.699219 -77.445312 Z M 119.699219 -77.445312 "/></g></g></g><g fill="#89b0ae" fill-opacity="0.302"><g transform="translate(19.710961, 392.089101)"><g/></g></g><g fill="#89b0ae" fill-opacity="0.302"><g transform="translate(94.344344, 383.255151)"><g/></g></g><g fill="#89b0ae" fill-opacity="0.302"><g transform="translate(168.977727, 374.421201)"><g/></g></g><g fill="#89b0ae" fill-opacity="0.502"><g transform="translate(28.074596, 385.84358)"><g/></g></g><g fill="#89b0ae" fill-opacity="0.502"><g transform="translate(102.707979, 377.009629)"><g/></g></g><g fill="#89b0ae" fill-opacity="0.502"><g transform="translate(177.341362, 368.175679)"><g/></g></g><g fill="#ffe4d6" fill-opacity="1"><g transform="translate(36.43823, 379.598072)"><g/></g></g><g fill="#ffe4d6" fill-opacity="1"><g transform="translate(111.071613, 370.764122)"><g/></g></g><g fill="#ffe4d6" fill-opacity="1"><g transform="translate(185.704996, 361.930171)"><g/></g></g><g fill="#89b0ae" fill-opacity="0.302"><g transform="translate(243.614656, 365.586831)"><g><path d="M 212.410156 -82.742188 C 208.65625 -75.359375 202.878906 -70.894531 196.660156 -70.15625 C 187.332031 -69.050781 183.300781 -74.671875 182.296875 -83.171875 C 180.800781 -95.816406 183.421875 -132.285156 193.785156 -133.511719 C 196.480469 -133.832031 198.617188 -131.773438 201.726562 -132.140625 C 208.984375 -133 215.449219 -147.640625 213.976562 -160.078125 C 212.652344 -171.273438 205.4375 -180.71875 189.472656 -178.832031 C 166.460938 -176.105469 143.628906 -145.234375 133.355469 -114.796875 C 125.757812 -148.796875 103.230469 -168.621094 67.15625 -164.351562 C 25.488281 -159.421875 2.054688 -128.265625 5.761719 -96.960938 C 8.066406 -77.476562 21.613281 -66.042969 37.992188 -67.984375 C 56.441406 -70.167969 64.453125 -87.722656 59.71875 -95.78125 C 53.703125 -95.070312 48.480469 -100.128906 47.621094 -107.382812 C 46.078125 -120.445312 54.289062 -129.195312 64.242188 -130.371094 C 73.15625 -131.425781 79.257812 -126.054688 80.558594 -115.066406 C 83.207031 -92.675781 66.542969 -50.550781 37.519531 -47.117188 C 25.492188 -45.691406 15.84375 -50.855469 14.761719 -59.976562 C 14.589844 -61.429688 13.019531 -62.292969 11.359375 -62.097656 C -5.226562 -60.136719 -14.226562 -42.042969 -12.214844 -25.042969 C -10.175781 -7.835938 3.726562 8.386719 27.773438 5.542969 C 63.019531 1.371094 91.023438 -28.433594 96.730469 -97.429688 C 97.09375 -101.464844 98.945312 -103.578125 101.847656 -103.921875 C 104.542969 -104.242188 107.046875 -102.644531 108.003906 -94.558594 C 110.257812 -75.484375 100.984375 -50.84375 102.800781 -35.503906 C 103.804688 -27.003906 107.664062 -22.835938 120.722656 -24.378906 C 127.566406 -25.191406 134.710938 -28.769531 136.746094 -43.515625 C 144.015625 -97.558594 149.191406 -108.894531 156.445312 -109.753906 C 158.933594 -110.046875 160.558594 -108.769531 160.925781 -105.660156 C 161.90625 -97.367188 150.144531 -72.429688 152.941406 -48.792969 C 155.171875 -29.929688 164.402344 -19.460938 179.742188 -21.273438 C 207.730469 -24.585938 217.066406 -66.476562 222.351562 -78.664062 C 220.019531 -82.382812 214.796875 -87.4375 212.410156 -82.742188 Z M 212.410156 -82.742188 "/></g></g></g><g fill="#89b0ae" fill-opacity="0.502"><g transform="translate(251.978291, 359.341309)"><g><path d="M 212.410156 -82.742188 C 208.65625 -75.359375 202.878906 -70.894531 196.660156 -70.15625 C 187.332031 -69.050781 183.300781 -74.671875 182.296875 -83.171875 C 180.800781 -95.816406 183.421875 -132.285156 193.785156 -133.511719 C 196.480469 -133.832031 198.617188 -131.773438 201.726562 -132.140625 C 208.984375 -133 215.449219 -147.640625 213.976562 -160.078125 C 212.652344 -171.273438 205.4375 -180.71875 189.472656 -178.832031 C 166.460938 -176.105469 143.628906 -145.234375 133.355469 -114.796875 C 125.757812 -148.796875 103.230469 -168.621094 67.15625 -164.351562 C 25.488281 -159.421875 2.054688 -128.265625 5.761719 -96.960938 C 8.066406 -77.476562 21.613281 -66.042969 37.992188 -67.984375 C 56.441406 -70.167969 64.453125 -87.722656 59.71875 -95.78125 C 53.703125 -95.070312 48.480469 -100.128906 47.621094 -107.382812 C 46.078125 -120.445312 54.289062 -129.195312 64.242188 -130.371094 C 73.15625 -131.425781 79.257812 -126.054688 80.558594 -115.066406 C 83.207031 -92.675781 66.542969 -50.550781 37.519531 -47.117188 C 25.492188 -45.691406 15.84375 -50.855469 14.761719 -59.976562 C 14.589844 -61.429688 13.019531 -62.292969 11.359375 -62.097656 C -5.226562 -60.136719 -14.226562 -42.042969 -12.214844 -25.042969 C -10.175781 -7.835938 3.726562 8.386719 27.773438 5.542969 C 63.019531 1.371094 91.023438 -28.433594 96.730469 -97.429688 C 97.09375 -101.464844 98.945312 -103.578125 101.847656 -103.921875 C 104.542969 -104.242188 107.046875 -102.644531 108.003906 -94.558594 C 110.257812 -75.484375 100.984375 -50.84375 102.800781 -35.503906 C 103.804688 -27.003906 107.664062 -22.835938 120.722656 -24.378906 C 127.566406 -25.191406 134.710938 -28.769531 136.746094 -43.515625 C 144.015625 -97.558594 149.191406 -108.894531 156.445312 -109.753906 C 158.933594 -110.046875 160.558594 -108.769531 160.925781 -105.660156 C 161.90625 -97.367188 150.144531 -72.429688 152.941406 -48.792969 C 155.171875 -29.929688 164.402344 -19.460938 179.742188 -21.273438 C 207.730469 -24.585938 217.066406 -66.476562 222.351562 -78.664062 C 220.019531 -82.382812 214.796875 -87.4375 212.410156 -82.742188 Z M 212.410156 -82.742188 "/></g></g></g><g fill="#ffe4d6" fill-opacity="1"><g transform="translate(260.341925, 353.095801)"><g><path d="M 212.410156 -82.742188 C 208.65625 -75.359375 202.878906 -70.894531 196.660156 -70.15625 C 187.332031 -69.050781 183.300781 -74.671875 182.296875 -83.171875 C 180.800781 -95.816406 183.421875 -132.285156 193.785156 -133.511719 C 196.480469 -133.832031 198.617188 -131.773438 201.726562 -132.140625 C 208.984375 -133 215.449219 -147.640625 213.976562 -160.078125 C 212.652344 -171.273438 205.4375 -180.71875 189.472656 -178.832031 C 166.460938 -176.105469 143.628906 -145.234375 133.355469 -114.796875 C 125.757812 -148.796875 103.230469 -168.621094 67.15625 -164.351562 C 25.488281 -159.421875 2.054688 -128.265625 5.761719 -96.960938 C 8.066406 -77.476562 21.613281 -66.042969 37.992188 -67.984375 C 56.441406 -70.167969 64.453125 -87.722656 59.71875 -95.78125 C 53.703125 -95.070312 48.480469 -100.128906 47.621094 -107.382812 C 46.078125 -120.445312 54.289062 -129.195312 64.242188 -130.371094 C 73.15625 -131.425781 79.257812 -126.054688 80.558594 -115.066406 C 83.207031 -92.675781 66.542969 -50.550781 37.519531 -47.117188 C 25.492188 -45.691406 15.84375 -50.855469 14.761719 -59.976562 C 14.589844 -61.429688 13.019531 -62.292969 11.359375 -62.097656 C -5.226562 -60.136719 -14.226562 -42.042969 -12.214844 -25.042969 C -10.175781 -7.835938 3.726562 8.386719 27.773438 5.542969 C 63.019531 1.371094 91.023438 -28.433594 96.730469 -97.429688 C 97.09375 -101.464844 98.945312 -103.578125 101.847656 -103.921875 C 104.542969 -104.242188 107.046875 -102.644531 108.003906 -94.558594 C 110.257812 -75.484375 100.984375 -50.84375 102.800781 -35.503906 C 103.804688 -27.003906 107.664062 -22.835938 120.722656 -24.378906 C 127.566406 -25.191406 134.710938 -28.769531 136.746094 -43.515625 C 144.015625 -97.558594 149.191406 -108.894531 156.445312 -109.753906 C 158.933594 -110.046875 160.558594 -108.769531 160.925781 -105.660156 C 161.90625 -97.367188 150.144531 -72.429688 152.941406 -48.792969 C 155.171875 -29.929688 164.402344 -19.460938 179.742188 -21.273438 C 207.730469 -24.585938 217.066406 -66.476562 222.351562 -78.664062 C 220.019531 -82.382812 214.796875 -87.4375 212.410156 -82.742188 Z M 212.410156 -82.742188 "/></g></g></g></svg>